HIERARCHY
ROOT Hips
{
 OFFSET 0.000000 0.000000 0.000000
 CHANNELS 6 Xposition Yposition Zposition Yrotation Xrotation Zrotation
 JOINT Chest
 {
  OFFSET 0.000000 9.588913 -0.003946
  CHANNELS 3 Yrotation Xrotation Zrotation
  JOINT Chest2
  {
   OFFSET 0.000000 9.541882 0.008053
   CHANNELS 3 Yrotation Xrotation Zrotation
   JOINT Chest3
   {
    OFFSET 0.000000 9.501360 0.000000
    CHANNELS 3 Yrotation Xrotation Zrotation
    JOINT Chest4
    {
     OFFSET 0.000000 9.491660 0.000000
     CHANNELS 3 Yrotation Xrotation Zrotation
     JOINT Neck
     {
      OFFSET 0.000000 14.331917 0.000000
      CHANNELS 3 Yrotation Xrotation Zrotation
      JOINT Head
      {
       OFFSET 0.000000 8.884799 0.017034
       CHANNELS 3 Yrotation Xrotation Zrotation
       End Site
       {
        OFFSET 0.000000 16.896195 0.008993
       }
      }
     }
     JOINT RightCollar
     {
      OFFSET -2.923010 9.499495 0.000000
      CHANNELS 3 Yrotation Xrotation Zrotation
      JOINT RightShoulder
      {
       OFFSET -13.795216 0.000000 0.000000
       CHANNELS 3 Yrotation Xrotation Zrotation
       JOINT RightElbow
       {
        OFFSET -30.272209 0.000000 0.000000
        CHANNELS 3 Yrotation Xrotation Zrotation
        JOINT RightWrist
        {
         OFFSET -24.478199 0.000000 0.000000
         CHANNELS 3 Yrotation Xrotation Zrotation
         End Site
         {
          OFFSET -18.090752 0.000000 0.000000
         }
        }
       }
      }
     }
     JOINT LeftCollar
     {
      OFFSET 2.923010 9.499495 0.000000
      CHANNELS 3 Yrotation Xrotation Zrotation
      JOINT LeftShoulder
      {
       OFFSET 13.795216 0.000000 0.000000
       CHANNELS 3 Yrotation Xrotation Zrotation
       JOINT LeftElbow
       {
        OFFSET 30.272209 0.000000 0.000000
        CHANNELS 3 Yrotation Xrotation Zrotation
        JOINT LeftWrist
        {
         OFFSET 24.478199 0.000000 0.000000
         CHANNELS 3 Yrotation Xrotation Zrotation
         End Site
         {
          OFFSET 18.090752 0.000000 0.000000
         }
        }
       }
      }
     }
    }
   }
  }
 }
 JOINT RightHip
 {
  OFFSET -7.826875 0.019532 0.001973
  CHANNELS 3 Yrotation Xrotation Zrotation
  JOINT RightKnee
  {
   OFFSET 0.000000 -40.546152 -0.001885
   CHANNELS 3 Yrotation Xrotation Zrotation
   JOINT RightAnkle
   {
    OFFSET 0.000000 -39.417092 -0.003189
    CHANNELS 3 Yrotation Xrotation Zrotation
    JOINT RightToe
    {
     OFFSET 0.000000 -7.579396 17.243563
     CHANNELS 3 Yrotation Xrotation Zrotation
     End Site
     {
      OFFSET 0.000000 -1.500329 6.694466
     }
    }
   }
  }
 }
 JOINT LeftHip
 {
  OFFSET 7.826875 0.019532 0.001973
  CHANNELS 3 Yrotation Xrotation Zrotation
  JOINT LeftKnee
  {
   OFFSET 0.000000 -40.546152 -0.001885
   CHANNELS 3 Yrotation Xrotation Zrotation
   JOINT LeftAnkle
   {
    OFFSET 0.000000 -39.417092 -0.003189
    CHANNELS 3 Yrotation Xrotation Zrotation
    JOINT LeftToe
    {
     OFFSET 0.000000 -7.579396 17.243563
     CHANNELS 3 Yrotation Xrotation Zrotation
     End Site
     {
      OFFSET 0.000000 -1.500329 6.694466
     }
    }
   }
  }
 }
}
MOTION
Frames: 9
Frame Time: 0.008333
-2.161717 88.071376 -14.298971 -164.197459 -12.173859 -1.932900 -6.711968 4.824624 -0.908402 -3.898617 2.749127 -0.160447 -4.875881 3.434207 -0.229863 -3.898625 2.749133 -0.160447 17.561879 24.259331 -4.899330 32.614613 12.138168 -12.571601 -0.733457 -0.879684 -8.269063 1.474968 12.688796 77.322094 74.158609 13.414053 34.332379 -16.564553 -4.398144 -16.568702 -11.113202 -3.902945 -1.675463 -29.675211 -23.942373 -56.439857 -12.024519 51.622406 -0.723513 -30.699780 6.725665 15.907247 -2.661229 -0.152509 -5.593127 2.909257 10.663876 1.121969 3.668404 0.840092 8.094903 0.153907 -0.515152 0.057019 17.976899 16.442347 1.415290 4.031472 5.265237 2.044437 10.131769 -11.702326 -0.928355 0.022068 0.699391 0.008199
-2.208273 88.064238 -14.275977 -164.275124 -12.155750 -1.958784 -6.767804 4.751411 -0.910686 -3.932247 2.705132 -0.162273 -4.917879 3.379178 -0.231921 -3.932254 2.705138 -0.162273 17.648338 24.303674 -4.871173 32.757413 12.230511 -12.526128 -0.808131 -0.802072 -8.280061 1.461675 12.791377 77.583748 74.308498 13.457267 34.294960 -16.744619 -4.351171 -16.363092 -11.132321 -3.885995 -1.708469 -29.569742 -23.847173 -56.430137 -12.005925 51.702884 -0.772873 -30.826197 6.739268 15.915569 -2.622671 -0.203754 -5.585136 2.911653 10.680553 1.119084 3.713675 0.834127 8.128037 0.151016 -0.517662 0.058564 17.998606 16.462673 1.392542 4.053610 5.200167 2.043562 10.159883 -11.697560 -0.898057 0.027950 0.700990 0.014548
-2.253991 88.056719 -14.253140 -164.348448 -12.131151 -1.986272 -6.821394 4.679564 -0.909904 -3.964257 2.661987 -0.162556 -4.957842 3.325230 -0.232041 -3.964264 2.661992 -0.162556 17.728425 24.345947 -4.844609 32.889460 12.318051 -12.482776 -0.877497 -0.727908 -8.291012 1.454043 12.886895 77.845203 74.438182 13.511079 34.249984 -16.912932 -4.313933 -16.184100 -11.150187 -3.878655 -1.734589 -29.494025 -23.745295 -56.428742 -11.962304 51.766896 -0.784418 -30.943311 6.754813 15.919801 -2.592465 -0.260601 -5.575164 2.916638 10.696078 1.117011 3.754662 0.828842 8.158139 0.148205 -0.518963 0.060288 18.028446 16.470101 1.374308 4.071364 5.147067 2.043405 10.172343 -11.699654 -0.868566 0.033526 0.703967 0.019747
-2.298998 88.049005 -14.231421 -164.416062 -12.103653 -2.015612 -6.873269 4.609626 -0.905733 -3.994977 2.620370 -0.161535 -4.996184 3.273206 -0.230530 -3.994983 2.620375 -0.161535 17.801686 24.388055 -4.820609 33.009890 12.404426 -12.442722 -0.945514 -0.655482 -8.300498 1.455242 12.968228 78.101041 74.535065 13.557277 34.202045 -17.069544 -4.282999 -16.014617 -11.162578 -3.877675 -1.755334 -29.458201 -23.638827 -56.427552 -11.896420 51.810186 -0.763736 -31.058548 6.770768 15.927478 -2.572694 -0.317717 -5.564902 2.927687 10.708359 1.118585 3.790084 0.824138 8.184826 0.145284 -0.518653 0.061728 18.062304 16.468408 1.360104 4.087205 5.106075 2.044865 10.172499 -11.708000 -0.840135 0.038503 0.707367 0.023494
-2.343577 88.041362 -14.211937 -164.478044 -12.079239 -2.045932 -6.924503 4.542894 -0.898862 -4.025112 2.581014 -0.159173 -5.033789 3.224024 -0.227358 -4.025118 2.581018 -0.159174 17.868424 24.432136 -4.801270 33.119394 12.494214 -12.409180 -1.009691 -0.580894 -8.309195 1.459440 13.031084 78.340023 74.592189 13.574906 34.162793 -17.213748 -4.258849 -15.838288 -11.162690 -3.879015 -1.775167 -29.461061 -23.533809 -56.421329 -11.818151 51.830594 -0.726562 -31.174446 6.790023 15.939673 -2.562597 -0.369184 -5.555153 2.940299 10.719016 1.118921 3.832241 0.817741 8.211556 0.142109 -0.517365 0.063225 18.093309 16.463825 1.347881 4.100083 5.078241 2.048353 10.173164 -11.721928 -0.813405 0.042679 0.709677 0.025598
-2.387163 88.033915 -14.195066 -164.538035 -12.059301 -2.079202 -6.973660 4.479129 -0.889091 -4.053795 2.543895 -0.155167 -5.069571 3.177656 -0.222137 -4.053800 2.543899 -0.155167 17.928500 24.479531 -4.786469 33.217522 12.589775 -12.381593 -1.068990 -0.500475 -8.312510 1.449640 13.074915 78.546456 74.608852 13.550354 34.150350 -17.343697 -4.238106 -15.657849 -11.152498 -3.876915 -1.793862 -29.488993 -23.439923 -56.410485 -11.741061 51.837533 -0.690798 -31.286082 6.815774 15.952471 -2.558013 -0.413083 -5.541899 2.950732 10.726908 1.116040 3.883273 0.810410 8.238227 0.138995 -0.515223 0.064936 18.118108 16.457333 1.338252 4.108474 5.063690 2.054953 10.184488 -11.741711 -0.789435 0.045673 0.711190 0.025668
-2.429431 88.026783 -14.180964 -164.597752 -12.044961 -2.116095 -7.018914 4.418936 -0.876063 -4.080414 2.509070 -0.150200 -5.102770 3.134170 -0.215722 -4.080419 2.509074 -0.150200 17.981970 24.530424 -4.776160 33.304338 12.691448 -12.359849 -1.126607 -0.420200 -8.306527 1.420422 13.108099 78.718052 74.592163 13.491886 34.170624 -17.459820 -4.214148 -15.485329 -11.141656 -3.868078 -1.809875 -29.521604 -23.369678 -56.394432 -11.667636 51.851752 -0.663437 -31.391188 6.844970 15.960677 -2.555451 -0.447109 -5.524109 2.959365 10.730385 1.115356 3.929658 0.802634 8.260985 0.136216 -0.510705 0.065793 18.134905 16.450077 1.330742 4.114404 5.061404 2.064146 10.215182 -11.766789 -0.768871 0.049162 0.711900 0.024549
-2.470511 88.020080 -14.169681 -164.657782 -12.037749 -2.154873 -7.059624 4.364259 -0.860299 -4.105026 2.476986 -0.145365 -5.133465 3.094109 -0.209484 -4.105030 2.476989 -0.145365 18.029628 24.583106 -4.771113 33.381645 12.796563 -12.345856 -1.185507 -0.346663 -8.295955 1.386317 13.136711 78.869870 74.554390 13.416862 34.207742 -17.561202 -4.188142 -15.330518 -11.136340 -3.855066 -1.825746 -29.541266 -23.323777 -56.369204 -11.606657 51.890907 -0.652215 -31.491974 6.871973 15.964075 -2.553501 -0.470857 -5.503726 2.969907 10.731605 1.116726 3.970459 0.792101 8.281327 0.134642 -0.504166 0.065851 18.146596 16.445614 1.322295 4.121006 5.066253 2.074476 10.277083 -11.794266 -0.752282 0.057128 0.711051 0.024595
-2.510916 88.013710 -14.160291 -164.717271 -12.034057 -2.190511 -7.098630 4.313088 -0.846115 -4.127795 2.447971 -0.140602 -5.161861 3.057885 -0.203355 -4.127799 2.447974 -0.140603 18.072494 24.634978 -4.771776 33.451699 12.900801 -12.341211 -1.244336 -0.278803 -8.287977 1.363723 13.160631 79.014806 74.504948 13.338049 34.240233 -17.646266 -4.167248 -15.198032 -11.137326 -3.842734 -1.844307 -29.540697 -23.293846 -56.335126 -11.565607 51.958186 -0.661046 -31.589556 6.893735 15.968375 -2.551901 -0.490191 -5.485983 2.986275 10.733758 1.116522 4.010240 0.775684 8.304259 0.134049 -0.496339 0.065242 18.154511 16.446041 1.315002 4.129763 5.072785 2.085353 10.326723 -11.821506 -0.735991 0.061614 0.708298 0.023284
